<svg id="Layer_1" data-name="Layer 1" xmlns="http://www.w3.org/2000/svg" viewBox="0 0 1024 1024"><defs><style>.cls-1{opacity:0.25;}.cls-2,.cls-4{fill:#fff;}.cls-2,.cls-3,.cls-5,.cls-6,.cls-7{stroke:#000;}.cls-2,.cls-5{stroke-miterlimit:10;}.cls-2,.cls-3{stroke-width:8.66px;}.cls-3,.cls-5,.cls-6,.cls-7{fill:none;}.cls-3,.cls-6,.cls-7{stroke-linejoin:round;}.cls-5{stroke-width:6.42px;}.cls-6{stroke-width:4.95px;}.cls-7{stroke-width:3.22px;}</style></defs><g class="cls-1"><path class="cls-2" d="M998.29,490.29Q992,500,985.21,509.4A556,556,0,0,1,489.67,739.67l-.21,0q-3.34-.35-6.7-.57l-.27,0A282.86,282.86,0,0,0,182.71,977.82C140.15,861,146.66,735.35,194.38,626.65a472.22,472.22,0,0,1,62.46-103.73l151,34.6L438.77,443C595.16,544.2,794.88,569.15,976.29,499.28Q987.33,495,998.29,490.29Z"/><path class="cls-3" d="M436.11,460.86s260.13,176.63,549.1,48.54"/><path class="cls-3" d="M429.75,476.41s263.88,179.91,540,53.54"/><path class="cls-3" d="M424.91,494.32S709,677.5,951.44,552"/><path class="cls-3" d="M420.14,512s273.18,175.26,506.17,66.88"/><path class="cls-3" d="M415.31,530.36C420,531.45,666.4,690.18,892.67,609.8"/><path class="cls-3" d="M411.14,546.46C399.49,538.31,630.3,698,861.08,634.71"/><path class="cls-3" d="M390.25,553.49S587.32,693.23,818,662.86"/><path class="cls-3" d="M348,543.8S528.09,695.27,781.69,683.12"/><path class="cls-3" d="M315.2,536.29s172.42,161.54,428.31,164"/><path class="cls-3" d="M285.53,529.49s145.73,155.57,409,188.58"/><path class="cls-3" d="M256.84,522.92s101.64,142.45,386.53,207.6"/><path class="cls-3" d="M246.83,536s93.1,131.39,343.81,202.53"/><path class="cls-3" d="M235.58,551.94S355.19,692.57,540.91,741.39"/><path class="cls-3" d="M225.57,566S324.22,683.4,472.38,738.5"/><path class="cls-3" d="M217.4,581.08s71.32,91.57,216.31,158.64"/><path class="cls-3" d="M209.26,599.3s70.26,81,189,144.8"/><path class="cls-3" d="M199.66,615.06s56.13,71,175.65,136.2"/><path class="cls-3" d="M192.23,631.63S249.17,698.46,353.59,760"/><path class="cls-3" d="M185.68,647.84s51.16,59.71,150.77,120"/><path class="cls-3" d="M179.89,663.82s50.94,60.23,139.29,113.28"/><path class="cls-3" d="M174.49,680.61S216,733.93,305.88,785.45"/><path class="cls-3" d="M169,700.45s52,58.84,119.41,96"/><path class="cls-3" d="M164.32,720.63s58.58,61.91,113.48,86.73"/><path class="cls-3" d="M160.25,742.75s51.89,54,103.25,77"/><path class="cls-3" d="M157.42,763.4s41.78,45.29,95.2,67.73"/><path class="cls-3" d="M155.34,786.59s50.89,45.72,86.55,57.1"/><path class="cls-3" d="M154.45,807.37s29.84,31.52,78,48.8"/><path class="cls-3" d="M154.55,830.85S194.15,859.44,225,867"/><path class="cls-3" d="M155.64,852s22.71,18.92,61.86,27.25"/><path class="cls-3" d="M157.79,873.91s24.26,17.32,52.59,18.44"/><line class="cls-3" x1="161.45" y1="898.51" x2="200.39" y2="908.81"/><line class="cls-3" x1="164.22" y1="917.09" x2="196.55" y2="924.08"/><line class="cls-3" x1="170.22" y1="938.2" x2="191.52" y2="939.18"/><path class="cls-4" d="M79,264.88C-22.51,207.06,52.18,77.6,52.18,77.6L216.25,46.18c73.37,40.46,105.6,123.41,105.6,123.41l-6.09,24.7,67.08,38.31c-5,22-40.11,31.4-40.11,31.4l16,33.52L436.52,342l-1.43,19.53s-38.75,3.1-80.37-19.81"/><path d="M77.45,267.67a124.89,124.89,0,0,1-22-15.86A107.35,107.35,0,0,1,46,242a102.86,102.86,0,0,1-8-11.08,98.37,98.37,0,0,1-11-24.95,112.74,112.74,0,0,1-3-13.32,130.56,130.56,0,0,1-1.35-13.52C21.73,161,24.5,143,29.23,125.73a239,239,0,0,1,8.59-25.43Q40.31,94.08,43.15,88c1.9-4.08,3.86-8,6.12-12.07L50,74.59l1.54-.29L215.63,42.92l1.18-.22,1,.58a205,205,0,0,1,34.36,24,249.49,249.49,0,0,1,29.22,29.92,293.66,293.66,0,0,1,24.24,34q5.46,8.9,10.3,18.17c1.61,3.09,3.16,6.2,4.65,9.36s2.92,6.3,4.27,9.66l.38.94-.26,1-6.1,24.7-1.54-3.6,67.07,38.33,2.07,1.19-.53,2.33a31.14,31.14,0,0,1-6.75,13,51.14,51.14,0,0,1-10.63,9.31,83,83,0,0,1-12.1,6.65c-2.09.94-4.2,1.81-6.35,2.61s-4.26,1.52-6.59,2.17l2.06-4.47,15.92,33.56-1.27-1.37,77.67,44.67,1.58.91-.14,1.79-1.51,19.52-.19,2.44-2.36.13a102.48,102.48,0,0,1-10.81,0q-5.34-.27-10.62-.92A162.27,162.27,0,0,1,393,359.38a164.26,164.26,0,0,1-39.38-15.69l2.2-4a163.4,163.4,0,0,0,18.74,8.6A162.66,162.66,0,0,0,414.51,358c3.41.39,6.83.65,10.24.8,1.71.06,3.42.11,5.12.1s3.44,0,5-.15l-2.56,2.57,1.35-19.52,1.43,2.69-77.92-44.23-.84-.48-.43-.88-16.06-33.49L338.2,262l3.7-1c1.93-.55,4-1.27,6-2s4-1.57,5.94-2.45A75.71,75.71,0,0,0,365,250.32a44.73,44.73,0,0,0,9.31-8.12,24.68,24.68,0,0,0,5.39-10.32l1.54,3.52-67.09-38.29L312,195.89l.58-2.38,6.09-24.7.12,2c-1.21-3-2.64-6.18-4.08-9.23s-3-6.11-4.55-9.13q-4.74-9.06-10.09-17.77a287.83,287.83,0,0,0-23.72-33.22,242.35,242.35,0,0,0-28.46-29.11,198.35,198.35,0,0,0-33.26-23.23l2.22.35-164,31.48,2.28-1.62c-2.05,3.66-4,7.62-5.84,11.54s-3.56,7.94-5.18,12a239.22,239.22,0,0,0-8.38,24.7c-4.62,16.73-7.29,34.07-6.53,51.27S34.42,213,43.45,227.45a95.83,95.83,0,0,0,7.49,10.35A101.55,101.55,0,0,0,59.79,247a117.58,117.58,0,0,0,20.84,15Z"/><path class="cls-4" d="M163.8,264.19c36.35,69.64,83.86,106.56,83.86,106.56,72.18,18.25,185.41,18,185.41,18l1.24-27.29s-12.72,2.83-36.33-3c-24.75-6.11-61-21.6-105.52-59.38C145.53,174.44,35,298.22,35,298.22S118,368.78,140.13,337s36-4.94,36-4.94,79,118.14,92.67,192.22l139,33.29,26-96.22s-31.74,17-73.57-75.17"/><path d="M163.8,264.19q8.28,14.91,17.85,29T202,320.44q10.76,13.14,22.69,25.2,6,6,12.21,11.69c2.09,1.89,4.2,3.75,6.34,5.56s4.34,3.61,6.47,5.22h0l-1.24-.6A450.76,450.76,0,0,0,294,376.14c15.32,2.18,30.73,3.83,46.18,5.13s30.93,2.26,46.43,2.94,31,1.11,46.49,1.16l-3.33,3.19L431,361.28,435,364.7l-.56.11-.5.08c-.32.05-.64.1-1,.13-.63.09-1.25.14-1.87.2-1.23.11-2.45.17-3.67.21q-3.64.09-7.24-.12A116,116,0,0,1,406,363.57c-4.68-.86-9.3-2-13.87-3.23s-9.06-2.73-13.47-4.4c-17.74-6.52-34.39-15.5-50.13-25.69-7.89-5.08-15.46-10.61-22.91-16.27-3.68-2.89-7.39-5.75-11-8.77L284,296.37a261.62,261.62,0,0,0-46-30,183,183,0,0,0-51.67-17.31c-4.48-.8-9-1.31-13.52-1.74s-9.07-.58-13.62-.51a156,156,0,0,0-27.11,2.49,170.55,170.55,0,0,0-51.18,18.4,191.37,191.37,0,0,0-23,14.8q-5.47,4.11-10.63,8.6-2.58,2.24-5,4.59c-1.63,1.54-3.29,3.19-4.71,4.74l-.33-4.77c5.23,4.38,10.74,8.64,16.29,12.74s11.23,8,17,11.79,11.7,7.28,17.76,10.48a126.09,126.09,0,0,0,18.62,8.18,62.85,62.85,0,0,0,9.62,2.45,32.75,32.75,0,0,0,9.44.34,16.63,16.63,0,0,0,8.06-3.08,15.17,15.17,0,0,0,3-3l1.5-2.09c.54-.73,1.08-1.47,1.66-2.18a47.45,47.45,0,0,1,7.82-8,22.6,22.6,0,0,1,11-5,16.47,16.47,0,0,1,6.51.49,18.86,18.86,0,0,1,5.69,2.79,25,25,0,0,1,4.42,4.08,29,29,0,0,1,1.82,2.32c.28.4.55.81.82,1.22s.5.81.8,1.38l-.19-.32c9.91,15,19.26,30.27,28.35,45.73S225,407,233.24,423s15.91,32.2,22.71,48.88,12.74,33.79,16.14,51.75L269.58,521l139,33.29-4,2.38,26-96.22,4.81,3.81a9.76,9.76,0,0,1-1.25.54c-.35.12-.72.25-1.06.34a20.1,20.1,0,0,1-2.09.46,23.78,23.78,0,0,1-4.1.29,28.56,28.56,0,0,1-7.82-1.27,46.72,46.72,0,0,1-13.45-6.88,77.93,77.93,0,0,1-11-9.73l-1.26-1.31-1.2-1.36c-.79-.91-1.61-1.8-2.38-2.72-1.5-1.88-3.06-3.71-4.47-5.65a209.56,209.56,0,0,1-15.42-24.05c-4.6-8.3-8.78-16.8-12.72-25.39l6.09-2.76c3.88,8.45,8,16.8,12.48,24.89a202.36,202.36,0,0,0,14.91,23.28c1.35,1.86,2.83,3.59,4.25,5.38.73.88,1.5,1.71,2.25,2.57l1.13,1.28,1.17,1.22a72.12,72.12,0,0,0,10,8.92,40.28,40.28,0,0,0,11.46,5.9,21.53,21.53,0,0,0,6,1,17.23,17.23,0,0,0,2.9-.2c.46-.08.92-.17,1.35-.29.22-.06.41-.14.61-.2l.37-.14,4.81,3.82-26,96.23-.85,3.13-3.16-.75L268,527.49l-2.11-.51-.4-2.14c-3.25-17.21-9.12-34-15.76-50.44s-14.33-32.52-22.46-48.35-16.79-31.41-25.8-46.78-18.37-30.59-28.14-45.4l-.1-.15-.09-.18c-.1-.19-.33-.58-.52-.88s-.41-.63-.63-.94a22.34,22.34,0,0,0-1.41-1.8,18.61,18.61,0,0,0-3.24-3,10.36,10.36,0,0,0-7.49-2.09,16.07,16.07,0,0,0-7.72,3.65,40.91,40.91,0,0,0-6.71,6.93c-.52.64-1,1.31-1.51,2l-1.55,2.16a21.91,21.91,0,0,1-4.34,4.37,23.38,23.38,0,0,1-11.23,4.36,39.23,39.23,0,0,1-11.38-.37,70.54,70.54,0,0,1-10.64-2.7,133.54,133.54,0,0,1-19.63-8.61c-6.28-3.32-12.35-7-18.27-10.78s-11.7-7.85-17.36-12-11.19-8.46-16.65-13l-2.67-2.23L32.55,296c1.71-1.87,3.35-3.48,5.08-5.14s3.48-3.22,5.26-4.78q5.34-4.67,11-8.91A197.85,197.85,0,0,1,77.7,261.84a177.3,177.3,0,0,1,53.2-19.11,162.37,162.37,0,0,1,28.27-2.6c4.74-.07,9.48.2,14.2.54s9.43,1,14.09,1.8a180.18,180.18,0,0,1,27.48,7,204.93,204.93,0,0,1,26.07,11,268.72,268.72,0,0,1,47.16,30.76l10.76,8.89c3.52,3,7.17,5.78,10.79,8.63,7.32,5.56,14.75,11,22.48,16,15.4,10,31.65,18.72,48.78,25,4.27,1.62,8.62,3,13,4.24s8.79,2.27,13.25,3.09a108.68,108.68,0,0,0,13.4,1.64c2.23.13,4.46.16,6.67.11,1.1,0,2.2-.09,3.28-.18.53-.05,1.07-.1,1.59-.17l.77-.11.65-.11,4.26-.73-.19,4.15-1.24,27.28-.15,3.2h-3.18c-15.66-.05-31.21-.49-46.8-1.17s-31.15-1.65-46.7-2.95-31.09-3-46.57-5.18A457.26,457.26,0,0,1,246.84,374l-.68-.17-.55-.43h0c-2.32-1.93-4.41-3.84-6.53-5.82s-4.17-4-6.2-6q-6.09-6.09-11.83-12.49-11.48-12.79-21.68-26.59t-19.12-28.38Q171.37,279.5,163.8,264.19Z"/><path class="cls-5" d="M315.29,195.54l6.44,71.8s16.75-1.09,28.27-5.79"/><path d="M317,183.91s-46.56,1.93-87.32,24.34c-15.95,8.77-45.23,24.5-48.91,38.12,0,0,17.84-31,132.22-48.78Z"/><path d="M284.63,529.21c-2.93-10.47-6.46-21-10.1-31.36s-7.61-20.7-11.79-30.91-8.54-20.35-13.05-30.42l-7-15-7.32-14.86c-10-19.7-20.49-39.16-32.05-58l-4.29-7.09L196.91,338l-2.25-3.48-9-13.91c-2.94-4.68-6.18-9.16-9.34-13.7l-9.51-13.6,0,0,9.82,13.38c3.27,4.47,6.62,8.88,9.67,13.5l9.37,13.71,2.33,3.43,2.23,3.5,4.47,7c12,18.61,23,37.87,33.47,57.41L245.86,420l7.34,14.92c4.77,10,9.45,20.07,13.83,30.27a627.58,627.58,0,0,1,23.56,62.4Z"/><path d="M300,534.37c-3.94-13.75-8.4-27.48-13.12-41.07s-9.82-27.07-15.23-40.42-11.3-26.5-17.53-39.5-13.18-25.65-20.59-38c7.84,12.12,15.2,24.57,22,37.34s13.1,25.77,19,39,11.49,26.55,16.74,40,10.19,27.06,14.69,40.91Z"/><path d="M321.58,534.75a2.84,2.84,0,0,0-1.94,1.1,2.5,2.5,0,0,0-.29.5,1.48,1.48,0,0,0-.09.28c-.07.27,0,.23,0,.22a4.09,4.09,0,0,0,0-.59c0-.52-.14-1.14-.25-1.76-.23-1.25-.54-2.55-.86-3.85-.65-2.6-1.4-5.22-2.18-7.83-1.57-5.23-3.29-10.44-5.07-15.62-3.58-10.38-7.42-20.68-11.44-30.92-8.07-20.45-16.82-40.67-26.63-60.4,10.73,19.25,20.43,39.08,29.48,59.21,4.51,10.07,8.85,20.22,12.93,30.5,2,5.14,4,10.3,5.87,15.55.92,2.62,1.82,5.26,2.63,8,.4,1.36.79,2.72,1.13,4.17.16.73.32,1.46.43,2.3a8.89,8.89,0,0,1,.1,1.48,5.31,5.31,0,0,1-.16,1.23,4.91,4.91,0,0,1-.19.53,3.91,3.91,0,0,1-.41.72,3.45,3.45,0,0,1-2.37,1.36Z"/><path d="M341.38,544.06c-2.64-7.55-5.38-15.11-8.14-22.65s-5.58-15.06-8.44-22.56q-8.57-22.53-17.65-44.86,10.5,21.7,20.5,43.67,5,11,9.89,22c3.25,7.36,6.46,14.73,9.61,22.17Z"/><polygon points="357.66 547.82 333.15 477.6 363.41 545.54 357.66 547.82"/><polygon points="372.41 551.05 359.77 503.05 378.28 549.1 372.41 551.05"/><polygon points="384.06 553.49 379.25 520.29 390.07 552.04 384.06 553.49"/><polygon points="216.14 400.49 238.42 378.43 220.9 404.43 216.14 400.49"/><polygon points="207.34 384.07 222.71 370.36 212.1 388.02 207.34 384.07"/><polygon points="226.64 416.84 253.83 391.46 231.22 420.99 226.64 416.84"/><polygon points="234.12 434.62 268.52 401.66 238.67 438.8 234.12 434.62"/><polygon points="243.73 451.46 286.43 412.11 248.16 455.78 243.73 451.46"/><polygon points="250.84 471.1 303.15 426.67 255.05 475.63 250.84 471.1"/><polygon points="259.25 493.89 319.19 441.34 263.5 498.38 259.25 493.89"/><polygon points="337.8 539.17 408.7 470.86 342.23 543.48 337.8 539.17"/><polygon points="354.77 542.75 401.09 500.94 359.13 547.13 354.77 542.75"/><polygon points="368.76 546.12 394.53 524.8 373.13 550.5 368.76 546.12"/><polygon points="380.68 550.6 406.45 529.28 385.05 554.98 380.68 550.6"/><polygon points="199.35 370.88 214.72 357.17 204.11 374.83 199.35 370.88"/><polygon points="345.04 213.34 323.13 252.61 319.58 250.67 340.69 210.97 345.04 213.34"/><polygon points="337.58 209.13 320.64 237.98 317.98 236.51 333.24 206.74 337.58 209.13"/><polygon points="331.75 204.36 318.4 225 316.08 223.65 327.47 201.87 331.75 204.36"/><polygon points="331.94 203.67 318.6 224.31 316.28 222.96 327.67 201.18 331.94 203.67"/><polygon points="352.93 218.29 325.41 263.98 322.04 262 348.66 215.78 352.93 218.29"/><polygon points="360.32 221.45 331.85 267.28 329.67 266 356.06 218.93 360.32 221.45"/><polygon points="368.57 225.76 342.38 264.42 340.64 263.32 364.39 223.11 368.57 225.76"/><polygon points="376.96 230.25 355.59 261.92 351.43 259.1 372.86 227.48 376.96 230.25"/><polygon points="431.93 338.76 422.36 360.46 427.22 337.25 431.93 338.76"/><polygon points="424.06 334.66 408.45 358.62 419.7 332.33 424.06 334.66"/><polygon points="414.84 330 394.51 351.95 410.94 326.95 414.84 330"/><polygon points="404.79 324.12 378.19 347.08 401.3 320.61 404.79 324.12"/><polygon points="394.66 318.94 368 338.65 391.43 315.2 394.66 318.94"/><polygon points="346.42 271.46 304.32 291.22 344.08 267.1 346.42 271.46"/><polygon points="350.29 280.91 312.33 298.46 347.95 276.55 350.29 280.91"/><polygon points="356.04 291.63 322.83 306.62 353.7 287.27 356.04 291.63"/><polygon points="359.89 299.7 333.81 310.88 357.55 295.34 359.89 299.7"/><polygon points="363.17 310.73 334.73 330.4 332.21 326.14 363.17 310.73"/><polygon points="357.46 328.66 348.5 338.92 345.43 335.05 357.46 328.66"/><polygon points="382.96 313.83 362.47 325.8 380.03 309.84 382.96 313.83"/><polygon points="328.62 268.76 296.4 283.23 326.28 264.4 328.62 268.76"/><polygon points="315.42 208.31 277.39 210.47 314.82 203.4 315.42 208.31"/><polygon points="317.62 218.93 269.19 225.36 316.72 214.06 317.62 218.93"/><polygon points="316.79 228.86 285.69 234.59 315.52 224.08 316.79 228.86"/><polygon points="284.71 248.94 316.99 235.73 318.53 240.43 284.71 248.94"/><polygon points="319.98 250.2 280.81 262.78 318.18 245.59 319.98 250.2"/><polygon points="320.19 261.86 290.91 272.99 318.07 257.39 320.19 261.86"/><polygon points="321.49 176.58 287.36 180.38 320.26 170.53 321.49 176.58"/><polygon points="318.34 165.2 275.14 169.35 317.31 159.1 318.34 165.2"/><path d="M313.14,153.54a303.11,303.11,0,0,0-30.85,3.08c-5.13.75-10.25,1.65-15.36,2.62s-10.19,2.08-15.28,3.23c5-1.65,9.9-3.27,14.92-4.73s10-2.89,15.11-4.15a310.54,310.54,0,0,1,30.87-6.21Z"/><path d="M305.19,140.92q-8.06.24-16.11.57l-8.05.39c-2.68.16-5.36.29-8,.65,2.55-.86,5.18-1.5,7.79-2.18s5.23-1.29,7.85-1.92q7.88-1.87,15.77-3.64Z"/><path d="M299.25,127.64c-3.94.13-7.93.33-11.9.56s-7.94.52-11.91.87-7.93.75-11.88,1.27-7.89,1.13-11.79,2c3.75-1.39,7.61-2.5,11.49-3.54s7.79-2,11.71-2.81,7.86-1.66,11.81-2.42,7.89-1.46,11.89-2.11Z"/><path d="M290.77,115c-.35.13-.71.26-1.07.36l-.27.08-.17,0-.34.06c-.45.07-.93.16-1.33.2-.83.1-1.66.2-2.46.27-1.62.15-3.22.27-4.81.4l-9.55.72c-3.17.25-6.34.53-9.5.87a79,79,0,0,0-9.41,1.48,80.38,80.38,0,0,1,9.12-3c3.09-.85,6.19-1.64,9.3-2.4l9.31-2.25c1.55-.38,3.09-.75,4.6-1.15.77-.2,1.51-.4,2.23-.61.38-.11.68-.22,1-.33l.24-.08.12,0v0s0,0,.06,0Z"/><path d="M279.54,102.68c-3.87.16-7.86.45-11.8.79s-7.89.76-11.83,1.25q-11.83,1.43-23.58,3.74,11.34-3.79,23-6.78,5.82-1.5,11.71-2.79c3.94-.86,7.84-1.67,11.88-2.36Z"/><path d="M266.15,88.48c-5.46.32-10.95.7-16.42,1.14q-4.09.33-8.19.73c-2.73.3-5.45.58-8.15,1.11,2.56-1,5.21-1.82,7.85-2.62s5.3-1.53,8-2.27q8-2.19,16-4.2Z"/><path d="M252.21,69.32c-5.22,3.54,4.85,8.59,1,6.09H253l-.33,0-.66,0-1.33.1-2.67.21-5.36.49q-5.37.54-10.71,1.23c-7.13.94-14.25,2.08-21.31,3.63,6.77-2.54,13.7-4.7,20.69-6.66q5.25-1.45,10.54-2.76l5.3-1.27,2.67-.61,1.34-.29.68-.14.35-.07.18,0,.1,0h.18c-3.86-2.5,6.22,2.54,1,6.08Z"/><path d="M238,62.83c-4.38.42-8.66.87-13,1.4s-8.66,1.1-13,1.71c-8.65,1.22-17.3,2.56-25.94,4q12.61-3.62,25.33-7c4.25-1.11,8.5-2.2,12.77-3.24s8.59-2,12.85-2.94Z"/><path d="M24.52,168.14c7.06-6.41,14.34-12.26,21.85-17.93s15.17-11.05,23.05-16.13c2-1.29,3.93-2.56,5.94-3.77l6-3.68c4.07-2.32,8.07-4.76,12.22-6.93,8.18-4.56,16.65-8.54,25.16-12.39-8.33,4.22-16.6,8.57-24.55,13.46-4,2.35-7.9,5-11.84,7.44l-5.79,3.91c-1.94,1.29-3.84,2.64-5.73,4q-11.4,8.07-22.15,17C41.51,159,34.49,165.22,28,171.67Z"/><path d="M27.32,140.3c4.77-4,9.58-7.77,14.48-11.5s9.84-7.36,14.86-10.9,10.07-7,15.21-10.36,10.33-6.6,15.57-9.78c-5,3.53-10,7.08-14.86,10.79S62.89,116,58.15,119.87s-9.41,7.8-14,11.81S35,139.79,30.64,144Z"/><path d="M25.87,194.62c1.24-1.54,2.43-2.79,3.68-4.14s2.52-2.58,3.81-3.82S36,184.22,37.28,183l4-3.54c5.41-4.64,11.06-9,16.81-13.13l4.33-3.08,4.41-3c2.91-2,5.94-3.86,8.9-5.79s6-3.69,9.06-5.53l9.2-5.28-8.87,5.8c-2.9,2-5.83,4-8.7,6s-5.74,4.1-8.52,6.27L63.73,165l-4.12,3.31c-5.45,4.44-10.77,9-15.82,13.91l-3.73,3.69c-1.2,1.27-2.44,2.5-3.6,3.8s-2.33,2.58-3.46,3.89-2.24,2.7-3.14,4Z"/><path d="M33.23,216.43A117,117,0,0,1,41,207.61c2.66-2.81,5.42-5.5,8.2-8.16,5.6-5.28,11.43-10.28,17.39-15.11l4.49-3.58,4.57-3.49c3-2.35,6.16-4.54,9.25-6.8s6.29-4.35,9.43-6.53l9.59-6.28-9.23,6.78c-3,2.35-6.07,4.63-9,7s-6,4.76-8.83,7.26l-4.35,3.71-4.27,3.79c-5.64,5.11-11.14,10.37-16.37,15.86-2.59,2.76-5.16,5.55-7.61,8.43s-4.87,5.84-6.91,8.77Z"/><path d="M39.6,227.35c2.39-2.33,4.76-4.43,7.2-6.54s4.9-4.13,7.39-6.12,5-3.94,7.59-5.82,5.15-3.74,7.76-5.56c-2.28,2.21-4.54,4.44-6.74,6.72s-4.36,4.59-6.49,6.92-4.19,4.71-6.21,7.12-4,4.88-5.81,7.31Z"/><path d="M47.54,239.09q13.89-10.76,28.09-21c9.49-6.81,19.09-13.45,28.91-19.74-9.35,7-18.44,14.25-27.39,21.69s-17.78,15-26.43,22.79Z"/><path d="M59.19,250.35q19.22-15.49,38.7-30.61c6.52-5,13-10,19.66-14.91,1.64-1.23,3.32-2.43,5-3.64s3.34-2.4,5-3.57l2.53-1.77,2.57-1.7c1.69-1.17,3.49-2.18,5.25-3.23-1.71,1.14-3.44,2.23-5.07,3.49l-2.48,1.82-2.44,1.88c-1.62,1.26-3.24,2.52-4.83,3.82s-3.2,2.56-4.78,3.88C112,211,105.7,216.33,99.45,221.66q-18.69,16-37.05,32.45Z"/><polygon points="70.77 258.72 126.96 220.82 73.68 262.72 70.77 258.72"/><path d="M44.66,115.12a4.38,4.38,0,0,0-.41,2.49c.06.18.2.23.32.3l.38.21,1.5.83,3,1.67c2,1.12,4,2.19,6.06,3.29l12.2,6.39c4.07,2.15,8.16,4.23,12.2,6.43q3,1.62,6,3.3t6,3.37c16,9,31.89,18.24,47.51,27.92C123.09,163,107,154.17,91,145.2c-2-1.11-4-2.24-6-3.39s-4-2.28-6-3.45c-4-2.3-7.87-4.73-11.81-7.09l-11.8-7.11c-2-1.16-4-2.34-6-3.47l-3-1.71-1.5-.85-.37-.22a.57.57,0,0,0-.43-.12c-.36.07-.94.5-1.91,1.64Z"/><path d="M36.22,143.93c6.18,2.63,12.19,5.56,18.17,8.57s11.88,6.17,17.78,9.33,11.76,6.38,17.61,9.64,11.64,6.59,17.41,10c-6.07-2.84-12.08-5.78-18.08-8.77s-11.93-6-17.87-9.13-11.86-6.19-17.71-9.45S41.88,147.55,36.22,143.93Z"/><path d="M37,166.47c3.54,1.4,7,3,10.4,4.62s6.77,3.36,10.12,5.13,6.64,3.61,9.9,5.54,6.46,3.94,9.57,6.16c-3.57-1.36-7-2.92-10.43-4.56s-6.77-3.38-10.09-5.18-6.63-3.65-9.87-5.6S40.07,168.65,37,166.47Z"/><path d="M55.62,107.14c3.54,1.4,7,3,10.4,4.62s6.78,3.36,10.12,5.13,6.64,3.61,9.9,5.54,6.47,3.94,9.57,6.16c-3.57-1.35-7-2.92-10.43-4.56s-6.77-3.38-10.09-5.18-6.62-3.65-9.87-5.6S58.74,109.32,55.62,107.14Z"/><path d="M64.39,92.21c2.29.91,4.51,1.93,6.71,3s4.37,2.17,6.53,3.31,4.29,2.33,6.39,3.58,4.17,2.54,6.17,4c-2.3-.87-4.52-1.88-6.72-2.94S79.1,100.93,77,99.77s-4.27-2.36-6.37-3.61S66.41,93.62,64.39,92.21Z"/><path d="M35.6,205.24c7,2.82,14,5.87,20.85,9q5.17,2.33,10.3,4.75c3.43,1.58,6.83,3.23,10.23,4.87C83.8,227.1,90.55,230.5,97.27,234s13.35,7.1,19.86,11c-7.09-2.72-14-5.76-20.91-8.87s-13.7-6.37-20.47-9.73C72.36,224.71,69,223,65.6,221.32s-6.73-3.43-10.08-5.19C48.82,212.62,42.16,209.05,35.6,205.24Z"/><path d="M54.08,231.44c3.41,1.42,6.79,2.93,10.14,4.47s6.7,3.12,10,4.73,6.63,3.25,9.91,5l4.91,2.58c1.62.89,3.25,1.76,4.85,2.69-1.72-.69-3.4-1.44-5.11-2.17l-5-2.28c-3.36-1.53-6.69-3.13-10-4.75s-6.62-3.27-9.9-5S57.3,233.26,54.08,231.44Z"/><path d="M37.47,187.83c7.12,2.91,14.07,6.12,21,9.45S72.15,204.06,79,207.59L89.07,213c3.34,1.87,6.72,3.67,10,5.6,6.65,3.78,13.24,7.68,19.67,11.9-7.12-2.89-14.08-6.1-21-9.42-3.47-1.64-6.87-3.39-10.3-5.08l-10.2-5.26c-6.76-3.59-13.5-7.21-20.14-11S43.91,192,37.47,187.83Z"/><path d="M87.2,193.94c4.88,1.77,9.6,3.85,14.25,6s9.25,4.49,13.79,6.9,9,4.92,13.39,7.62a145,145,0,0,1,12.84,8.66,143.83,143.83,0,0,1-14.3-5.94c-4.67-2.17-9.23-4.54-13.74-7s-9-5-13.34-7.71S91.37,197,87.2,193.94Z"/><path d="M205.14,247.91c8.46-3.24,16.91-6.39,25.42-9.44q6.38-2.29,12.8-4.46c4.28-1.44,8.58-2.85,12.93-4-4.22,1.59-8.36,3.38-12.48,5.2s-8.22,3.69-12.31,5.6q-12.25,5.7-24.37,11.68Z"/><path d="M186.47,244l.81-.7.4-.34.38-.26c.49-.33,1-.69,1.48-1,1-.58,2-1.17,2.93-1.69,1.95-1.08,3.92-2.06,5.9-3,3.95-1.92,7.94-3.71,11.95-5.43s8.08-3.33,12.17-4.85,8.22-3,12.41-4.13c-4.06,1.57-8,3.38-11.92,5.26s-7.77,3.88-11.58,5.95-7.57,4.21-11.25,6.46c-1.84,1.12-3.67,2.26-5.42,3.46-.89.59-1.72,1.21-2.56,1.82-.41.31-.77.63-1.15.94l-.28.23-.19.21-.4.4Z"/><path d="M226.45,255.61q9.7-4,19.44-7.91,4.88-1.95,9.78-3.82c3.27-1.24,6.55-2.48,9.88-3.53-3.18,1.44-6.28,3.05-9.38,4.66s-6.16,3.26-9.23,4.93q-9.19,5-18.32,10.11Z"/><path d="M244.13,264.45q7.35-3.85,14.73-7.59l7.42-3.69c2.49-1.19,5-2.4,7.54-3.45-2.4,1.38-4.69,2.9-7,4.41L260,258.76q-6.81,4.68-13.56,9.45Z"/><path d="M258.12,271.41c3.16-1.77,6.31-3.51,9.49-5.21s6.37-3.38,9.63-4.89c-2.83,2.22-5.53,4.56-8.22,6.92s-5.36,4.77-8,7.18Z"/><path d="M269.79,280.69c1.57-1,3.12-1.91,4.69-2.82s3.15-1.8,4.75-2.67a98.24,98.24,0,0,1,9.77-4.68,96.63,96.63,0,0,0-8.36,6.71c-1.33,1.19-2.65,2.39-3.94,3.61s-2.59,2.47-3.82,3.71Z"/><path d="M322.58,322c1.39-.85,2.74-1.6,4.12-2.36s2.77-1.48,4.17-2.18a91.16,91.16,0,0,1,8.54-3.77,89.93,89.93,0,0,0-7.16,5.82q-1.71,1.53-3.36,3.12c-1.09,1.06-2.19,2.15-3.19,3.21Z"/><path d="M241.87,220.28c1.35-.6,2.73-1.08,4.11-1.55s2.78-.87,4.19-1.25,2.81-.72,4.24-1a30.16,30.16,0,0,1,4.37-.54,31.1,31.1,0,0,1-4.09,1.63c-1.38.44-2.79.83-4.2,1.16s-2.84.65-4.28.92S243.34,220.15,241.87,220.28Z"/><path d="M253.87,122.69a61.41,61.41,0,0,1-8.77,3.79c-3,1-6,2-9.07,2.74s-6.12,1.52-9.23,2.12a92,92,0,0,1-9.43,1.42,90.24,90.24,0,0,1,8.82-3.61c3-1.08,6-2,9-2.92s6.09-1.67,9.19-2.3A61.63,61.63,0,0,1,253.87,122.69Z"/><path d="M231.93,83.59c-2.76,1.25-5.55,2.32-8.36,3.33s-5.65,2-8.49,2.86l-4.28,1.3c-1.45.38-2.87.82-4.33,1.18-2.89.75-5.81,1.44-8.8,1.91a72.85,72.85,0,0,1,8.2-3.75c1.39-.57,2.81-1,4.22-1.57s2.84-.95,4.27-1.4c2.86-.86,5.75-1.68,8.68-2.34A69.64,69.64,0,0,1,231.93,83.59Z"/><path d="M126.54,132.77c-2.42,1.81-4.92,3.47-7.44,5.07s-5.09,3.13-7.66,4.63l-3.9,2.2c-1.33.69-2.63,1.43-4,2.09a88.2,88.2,0,0,1-8.18,3.79,72.39,72.39,0,0,1,7.2-5.45c1.23-.86,2.51-1.64,3.77-2.45s2.57-1.54,3.86-2.29c2.61-1.47,5.25-2.89,8-4.17A67.69,67.69,0,0,1,126.54,132.77Z"/><path d="M116.2,160.48c-2.76,2.89-5.65,5.57-8.59,8.2s-5.93,5.18-9,7.67-6.14,4.91-9.31,7.26a115.17,115.17,0,0,1-9.82,6.67,94.1,94.1,0,0,1,8.19-8.62q4.3-4.08,8.9-7.81t9.47-7.13A90.8,90.8,0,0,1,116.2,160.48Z"/><path d="M203.8,73.76a28.56,28.56,0,0,1-5.4,2.61,56.75,56.75,0,0,1-5.65,1.76,51.75,51.75,0,0,1-5.8,1.16,32.92,32.92,0,0,1-6,.37,36.15,36.15,0,0,1,5.5-2.36c1.86-.65,3.74-1.2,5.65-1.67s3.82-.87,5.76-1.2A54.68,54.68,0,0,1,203.8,73.76Z"/><line class="cls-6" x1="419.57" y1="361.95" x2="422.66" y2="388.63"/><line class="cls-6" x1="408.02" y1="360.53" x2="407.61" y2="388.31"/><line class="cls-6" x1="396.64" y1="358.6" x2="394.37" y2="385.71"/><polygon points="385.28 354.64 381.29 384.29 379.36 384.13 380.35 354.23 385.28 354.64"/><polygon points="375.05 349.69 371.22 379.35 368.98 379.17 370.13 349.28 375.05 349.69"/><polygon points="362.87 345.1 359.27 374.78 356.55 374.55 357.94 344.68 362.87 345.1"/><polygon points="351.39 340.9 347.34 370.55 345.53 370.4 346.46 340.49 351.39 340.9"/><path d="M331.16,337.05a8.71,8.71,0,0,1,1.1,3.25,16,16,0,0,1,.09,3.24,25.61,25.61,0,0,1-.35,3.25,16.26,16.26,0,0,1-.88,3.24,17,17,0,0,1-.86-3.25,25.41,25.41,0,0,1-.33-3.24,16.81,16.81,0,0,1,.11-3.25A8.89,8.89,0,0,1,331.16,337.05Z"/><path d="M331.83,356.7a16.41,16.41,0,0,1,1,4.45,29.93,29.93,0,0,1,.1,4.44c-.05,1.48-.17,3-.35,4.44a30.27,30.27,0,0,1-.87,4.44,30,30,0,0,1-.83-4.45c-.17-1.48-.28-3-.31-4.44a30,30,0,0,1,.14-4.44A16.35,16.35,0,0,1,331.83,356.7Z"/><polygon points="289.55 329.32 294.45 377.94 289.51 378.19 289.55 329.32"/><polygon points="275.77 347.83 281.3 376.93 276.38 377.44 275.77 347.83"/><path d="M257.33,327.94a70.92,70.92,0,0,1,3.09,8.85c.85,3,1.57,6,2.18,9s1.11,6.1,1.48,9.18a67.61,67.61,0,0,1,.56,9.36,69.4,69.4,0,0,1-3.1-8.85q-1.26-4.49-2.17-9c-.61-3-1.11-6.09-1.48-9.18A69.2,69.2,0,0,1,257.33,327.94Z"/><path d="M241.19,310.69a127.49,127.49,0,0,1,3.88,12.48c1.09,4.2,2.11,8.42,2.94,12.68s1.67,8.52,2.33,12.82,1.26,8.6,1.58,13c-1.5-4.12-2.73-8.29-3.88-12.48s-2.17-8.41-3.13-12.64-1.79-8.49-2.52-12.77a127.38,127.38,0,0,1-1.57-13Z"/><polygon points="193.72 260.7 203.23 322.12 201.35 322.39 193.72 260.7"/><polygon points="224.09 321.99 236.28 357.86 231.51 359.14 224.09 321.99"/><path d="M208.65,265.65c2.07,8.13,3.7,16.34,5.21,24.58s2.83,16.5,3.73,24.84c-2.08-8.13-3.71-16.34-5.21-24.57S209.56,274,208.65,265.65Z"/><path d="M223.76,274.44c1.85,6.5,3.39,13.08,4.8,19.67.71,3.3,1.39,6.6,2,9.93s1.09,6.66,1.39,10c-1.06-3.22-1.9-6.49-2.69-9.77s-1.46-6.59-2.12-9.9C225.8,287.79,224.62,281.15,223.76,274.44Z"/><path d="M179.26,291c7.55.08,15.08.38,22.61.72s15,.79,22.57,1.31,15,1,22.53,1.8,15,1.59,22.45,2.83c-7.57.13-15.1-.15-22.63-.5s-15-.93-22.55-1.53-15-1.27-22.51-2S186.74,292.06,179.26,291Z"/><path d="M191.34,304.72c5.25.08,10.49.28,15.73.52s10.47.57,15.7.92,10.47.73,15.68,1.27,10.43,1.16,15.61,2.12c-5.27.16-10.51,0-15.75-.29s-10.46-.72-15.69-1.15-10.44-.95-15.65-1.49S196.54,305.44,191.34,304.72Z"/><line class="cls-7" x1="209.09" y1="331.86" x2="268" y2="336.01"/><line class="cls-7" x1="225.24" y1="351.53" x2="299.59" y2="353.98"/><path d="M249.07,364.78c6.2-.37,12.38-.32,18.55-.21s12.34.44,18.5.87c3.07.2,6.15.4,9.23.67s6.15.5,9.22.8c6.15.61,12.29,1.28,18.41,2.22-6.19.22-12.37.16-18.54,0-3.09-.06-6.17-.15-9.26-.28s-6.16-.26-9.24-.43c-6.17-.29-12.32-.76-18.47-1.31S255.19,365.86,249.07,364.78Z"/><polygon points="177.68 259.41 187.08 300.97 185.59 301.28 177.68 259.41"/><polygon points="263.84 278.3 263.87 319.21 260.62 278.43 263.84 278.3"/><polygon points="277.5 287.2 277.05 319.79 274.28 287.31 277.5 287.2"/><polygon points="300.36 305.62 300.29 326.83 297.14 305.85 300.36 305.62"/><path d="M301,335.34a51.16,51.16,0,0,1,1.72,7.27c.2,1.22.41,2.44.49,3.68a19.78,19.78,0,0,1,0,3.77,20.69,20.69,0,0,1-1.1-3.6c-.29-1.21-.45-2.44-.62-3.67A51.33,51.33,0,0,1,301,335.34Z"/><line class="cls-7" x1="321.29" y1="345.99" x2="322.66" y2="381.55"/><path d="M126.69,258.5c3.31,3.21,6.37,6.62,9.33,10.1s5.85,7,8.62,10.64,5.46,7.32,8.05,11.08,5.09,7.6,7.35,11.62c-3.31-3.22-6.36-6.63-9.33-10.1s-5.84-7-8.62-10.64-5.47-7.31-8.06-11.07S128.93,262.53,126.69,258.5Z"/><path d="M111.8,264.75c3.85,3.19,7.57,6.52,11.25,9.88,1.84,1.69,3.67,3.38,5.47,5.1s3.62,3.43,5.4,5.17c3.6,3.45,7.11,7,10.57,10.58s6.82,7.29,10,11.17c-3.95-3.1-7.66-6.42-11.35-9.78s-7.26-6.83-10.78-10.37q-2.65-2.62-5.27-5.3c-1.75-1.78-3.47-3.58-5.19-5.38C118.46,272.2,115.06,268.54,111.8,264.75Z"/><path d="M102.46,273.8a70.73,70.73,0,0,1,8.66,5.7c2.73,2.07,5.36,4.27,7.91,6.56s5,4.62,7.47,7.05a103.33,103.33,0,0,1,7,7.63,101,101,0,0,1-8.52-5.85c-2.76-2.05-5.42-4.2-8-6.41s-5.16-4.5-7.6-6.91A70.81,70.81,0,0,1,102.46,273.8Z"/><path d="M96,297.05a23.8,23.8,0,0,1,5,2,41.45,41.45,0,0,1,4.46,2.76,49.56,49.56,0,0,1,4.13,3.25,30.19,30.19,0,0,1,3.72,3.85,30.51,30.51,0,0,1-4.93-2.08,49.67,49.67,0,0,1-4.51-2.69A38.92,38.92,0,0,1,99.69,301,23.73,23.73,0,0,1,96,297.05Z"/><path d="M103.37,291.09a23.72,23.72,0,0,1,5,2,41.58,41.58,0,0,1,4.47,2.76,51.26,51.26,0,0,1,4.13,3.25,30.12,30.12,0,0,1,3.71,3.85,30.89,30.89,0,0,1-4.93-2.08,49.67,49.67,0,0,1-4.51-2.69A39.94,39.94,0,0,1,107,295,23.67,23.67,0,0,1,103.37,291.09Z"/><path d="M68.18,295.31a24.35,24.35,0,0,1,4.1,1.9A41.59,41.59,0,0,1,76,299.6a32.74,32.74,0,0,1,3.43,2.8,19.77,19.77,0,0,1,3,3.44A19.43,19.43,0,0,1,78.26,304a30.69,30.69,0,0,1-3.68-2.47,40,40,0,0,1-3.38-2.87A25.62,25.62,0,0,1,68.18,295.31Z"/><path d="M122.08,315.8a11.83,11.83,0,0,1,2.79.63,18.09,18.09,0,0,1,2.5,1.11,10.85,10.85,0,0,1,2.25,1.52,6.82,6.82,0,0,1,1.74,2.36,6.89,6.89,0,0,1-2.9-.45,10.82,10.82,0,0,1-2.39-1.29,16.38,16.38,0,0,1-2.14-1.69,11.68,11.68,0,0,1-1.86-2.18Z"/><path d="M98.19,315a13.7,13.7,0,0,1,3.65.19,21,21,0,0,1,3.38.9,13,13,0,0,1,3.12,1.49,8.42,8.42,0,0,1,2.62,2.71,8.47,8.47,0,0,1-3.77.07,12.79,12.79,0,0,1-3.26-1.16,19.9,19.9,0,0,1-3-1.75A14.12,14.12,0,0,1,98.18,315Z"/><path d="M72.84,278.15a16.63,16.63,0,0,1,3.46,1.42,25.07,25.07,0,0,1,3,1.93A15.79,15.79,0,0,1,82,283.87a9.58,9.58,0,0,1,1.94,3.28,9.69,9.69,0,0,1-3.61-1.21,16.25,16.25,0,0,1-2.88-2.13,24.4,24.4,0,0,1-2.51-2.57,15.9,15.9,0,0,1-2.1-3.08Z"/><path d="M86,273.75a10.64,10.64,0,0,1,2.58.52,16.47,16.47,0,0,1,2.32,1A9.49,9.49,0,0,1,93,276.61a6.13,6.13,0,0,1,1.64,2.14A6,6,0,0,1,92,278.4a9.58,9.58,0,0,1-2.23-1.14,16.21,16.21,0,0,1-2-1.52,11.17,11.17,0,0,1-1.74-2Z"/><path d="M127.2,309.64a14.36,14.36,0,0,1,3.25,1,21.58,21.58,0,0,1,2.88,1.56,13.29,13.29,0,0,1,2.56,2,8.24,8.24,0,0,1,1.91,2.91,8.29,8.29,0,0,1-3.38-.83,13.44,13.44,0,0,1-2.74-1.75,20.9,20.9,0,0,1-2.43-2.19,14.57,14.57,0,0,1-2-2.72Z"/><path d="M65.55,305.8c3.61,2,7.11,4.1,10.62,6.21s7,4.26,10.51,6.29,7.1,4.05,10.75,5.84a69.47,69.47,0,0,0,11.31,4.69,51.61,51.61,0,0,1-11.8-3.62c-1.9-.79-3.76-1.69-5.61-2.58s-3.68-1.87-5.46-2.9c-3.59-2-7.13-4.11-10.52-6.44A94.72,94.72,0,0,1,65.55,305.8Z"/><path d="M136.35,272.43a102.68,102.68,0,0,0-14.53,1.42,115.74,115.74,0,0,0-14.33,3.31c-2.36.66-4.67,1.52-7,2.32-1.15.44-2.28.92-3.42,1.38l-1.71.69-1.67.79-3.34,1.58-3.25,1.76c-.54.3-1.09.58-1.62.9l-1.57,1-3.13,2,3-2.12,1.52-1.06c.52-.34,1.06-.65,1.58-1l3.18-1.93,3.28-1.74,1.65-.87,1.69-.78c1.13-.51,2.25-1.05,3.39-1.55,2.3-.92,4.59-1.89,6.95-2.67a118.15,118.15,0,0,1,14.37-4,106,106,0,0,1,14.86-2.14Z"/><path d="M141.74,279.25a120.08,120.08,0,0,0-13.15,4.09,128.87,128.87,0,0,0-12.71,5.54A97.64,97.64,0,0,0,104,296.09a63.44,63.44,0,0,0-10.23,9.43,64.39,64.39,0,0,1,9.68-10.13A100.34,100.34,0,0,1,115,287.32a131.5,131.5,0,0,1,12.56-6.44,122.78,122.78,0,0,1,13.27-5.07Z"/><path d="M147.93,287a76.48,76.48,0,0,0-10.14,4.28q-5,2.5-9.72,5.51c-3.12,2-6.22,4.13-9.16,6.45-1.5,1.12-2.91,2.35-4.36,3.54s-2.81,2.49-4.22,3.73c1.32-1.33,2.6-2.71,4-4s2.7-2.63,4.13-3.85c2.79-2.54,5.76-4.87,8.78-7.15a111.62,111.62,0,0,1,9.47-6.27A77.13,77.13,0,0,1,146.93,284Z"/><polygon points="152.21 292.22 134.88 308.61 150.84 290.89 152.21 292.22"/><path d="M117.52,183.09A109.18,109.18,0,0,1,128,175.6c3.61-2.31,7.34-4.42,11.11-6.45s7.64-3.89,11.55-5.63a115.35,115.35,0,0,1,12-4.49c-7.74,3.66-15.27,7.6-22.72,11.72L128.8,177C125.07,179.06,121.35,181.14,117.52,183.09Z"/><path d="M94.68,133.23a137.17,137.17,0,0,1,18-11.86c3.14-1.77,6.35-3.42,9.64-4.91a45.67,45.67,0,0,1,10.2-3.54,61.86,61.86,0,0,0-9.86,4.25q-4.76,2.49-9.41,5.2C107.09,126,101,129.73,94.68,133.23Z"/><path d="M143.24,212.1a33.34,33.34,0,0,1,4.3-3.37c1.5-1,3.05-1.92,4.63-2.77s3.19-1.62,4.86-2.32a33.12,33.12,0,0,1,5.18-1.72,31.85,31.85,0,0,1-4.3,3.37q-2.25,1.5-4.62,2.77c-1.59.84-3.21,1.62-4.87,2.31A34.22,34.22,0,0,1,143.24,212.1Z"/><path d="M364.28,395.08c-.56.19-.9.26-1.33.37l-1.19.26c-.79.15-1.57.29-2.35.4-1.55.23-3.09.39-4.63.52-3.07.24-6.12.31-9.15.27s-6.05-.19-9.05-.39l-4.49-.4-4.47-.51,4.48-.26,4.47-.38c3-.31,5.91-.65,8.83-1.14s5.81-1,8.63-1.77c1.41-.36,2.8-.76,4.15-1.21.68-.22,1.34-.46,2-.71l.94-.38a8.7,8.7,0,0,0,.79-.38Z"/><path d="M369.41,407.16c-4.89,1.41-9.68,2.51-14.57,3.51s-9.77,1.8-14.7,2.39a138.79,138.79,0,0,1-14.83,1,80.5,80.5,0,0,1-14.73-1.27,79.6,79.6,0,0,0,14.65-.27A136.89,136.89,0,0,0,339.62,410c4.74-1.08,9.43-2.39,14.07-3.83s9.26-3.06,13.65-4.84Z"/><path d="M377.82,422c-3.58,1.24-7.13,2.4-10.73,3.5-1.79.55-3.6,1.08-5.41,1.57s-3.63.95-5.47,1.28c1.67-.82,3.28-1.75,4.87-2.7s3.16-1.95,4.71-2.95c3.11-2,6.2-4.1,9.22-6.2Z"/><path d="M350.13,429.79a47.72,47.72,0,0,1-8.76,3.25,73.86,73.86,0,0,1-9.05,1.9,79,79,0,0,1-9.23.85,45.85,45.85,0,0,1-9.34-.61c3-.92,6-1.6,9-2.26s6-1.21,9-1.7,6-.91,9.08-1.17A63.92,63.92,0,0,1,350.13,429.79Z"/><polygon points="386.57 436.95 368.54 443.11 383.65 431.5 386.57 436.95"/><path d="M404,453.17c-1.56,1.46-3.06,2.74-4.64,4s-3.17,2.5-4.79,3.7a119.34,119.34,0,0,1-10.06,6.61,90.82,90.82,0,0,1-10.75,5.3,62.53,62.53,0,0,1-11.41,3.34,61,61,0,0,0,10.74-4.74,87,87,0,0,0,9.7-6.47,114,114,0,0,0,8.81-7.6c1.39-1.34,2.76-2.7,4.08-4.11s2.64-2.85,3.78-4.25Z"/><path d="M325.3,452.75a39.73,39.73,0,0,1,4.32-1.53c1.44-.46,2.9-.83,4.36-1.18,2.91-.71,5.86-1.2,8.8-1.72l8.83-1.48c1.47-.24,2.95-.49,4.41-.77a30.43,30.43,0,0,0,4.36-1.06,11.77,11.77,0,0,1-1.92,1.26l-1,.55-1,.46a21.47,21.47,0,0,1-2.13.85c-.72.25-1.43.54-2.15.76-2.9.94-5.83,1.66-8.78,2.31a81.69,81.69,0,0,1-8.92,1.47c-1.5.15-3,.25-4.53.27A32.22,32.22,0,0,1,325.3,452.75Z"/><path d="M384.69,450a28.45,28.45,0,0,1-6.67,6.65,42.78,42.78,0,0,1-8.15,4.67c-1.42.67-2.91,1.2-4.38,1.74s-3,1-4.53,1.27a36.62,36.62,0,0,1-9.32,1c2.91-1.18,5.78-2.13,8.56-3.37,1.41-.52,2.75-1.23,4.14-1.8s2.73-1.25,4.06-1.94c2.69-1.33,5.33-2.75,8-4.13s5.37-2.78,8.27-4.08Z"/><path d="M316.85,393.58c-3.89.3-7.76.3-11.62.22l-2.9-.08-2.88-.15q-2.9-.13-5.77-.38c-3.85-.3-7.68-.71-11.49-1.31a87.33,87.33,0,0,1-11.39-2.46,87.38,87.38,0,0,1,11.64-.39c3.86.1,7.71.38,11.54.77,1.92.19,3.83.41,5.75.67l2.86.37,2.87.44A115.42,115.42,0,0,1,316.85,393.58Z"/></g></svg>